<?xml version="1.0" encoding="utf-8"?>
<!-- Generator: Adobe Illustrator 19.2.1, SVG Export Plug-In . SVG Version: 6.00 Build 0)  -->
<svg version="1.1" id="Layer_1" xmlns="http://www.w3.org/2000/svg" xmlns:xlink="http://www.w3.org/1999/xlink" x="0px" y="0px"
	 viewBox="0 0 766 300" style="enable-background:new 0 0 766 300;" xml:space="preserve">
<style type="text/css">
	.st0{opacity:0;}
	.st1{fill:url(#SVGID_1_);}
	.st2{fill:none;stroke:#FFFFFF;stroke-miterlimit:10;}
	.st3{fill:#FFFFFF;}
	.st4{fill:none;stroke:#FFFFFF;stroke-width:0.5494;stroke-miterlimit:10;}
	.st5{fill:none;stroke:#FFFFFF;stroke-width:0.5494;stroke-miterlimit:10;stroke-dasharray:3.2574,3.2574;}
	.st6{enable-background:new    ;}
</style>
<rect class="st0" width="766" height="300"/>
<linearGradient id="SVGID_1_" gradientUnits="userSpaceOnUse" x1="299.906" y1="-143.9512" x2="878.306" y2="-143.9512" gradientTransform="matrix(1 0 0 -1 -202 5.89)">
	<stop  offset="0" style="stop-color:#00AEEF"/>
	<stop  offset="1" style="stop-color:#EC008C"/>
</linearGradient>
<polygon class="st1" points="655.5,161.8 97.9,161.8 97.9,137.8 655.5,137.8 676.3,150.7 "/>
<line class="st2" x1="98.7" y1="150.6" x2="674.7" y2="150.6"/>
<circle class="st3" cx="128.5" cy="150.6" r="2.9"/>
<circle class="st3" cx="256.8" cy="150.6" r="2.9"/>
<circle class="st3" cx="385.2" cy="150.6" r="2.9"/>
<circle class="st3" cx="513.5" cy="150.6" r="2.9"/>
<circle class="st3" cx="641.9" cy="150.6" r="2.9"/>
<g>
	<g>
		<line class="st4" x1="128.4" y1="230.8" x2="128.4" y2="229.5"/>
		<line class="st5" x1="128.4" y1="226.9" x2="128.4" y2="71.9"/>
		<line class="st4" x1="128.4" y1="70.6" x2="128.4" y2="69.2"/>
	</g>
</g>
<g>
	<g>
		<line class="st4" x1="256.7" y1="230.8" x2="256.7" y2="229.5"/>
		<line class="st5" x1="256.7" y1="226.9" x2="256.7" y2="71.9"/>
		<line class="st4" x1="256.7" y1="70.6" x2="256.7" y2="69.2"/>
	</g>
</g>
<g>
	<g>
		<line class="st4" x1="385.1" y1="230.8" x2="385.1" y2="229.5"/>
		<line class="st5" x1="385.1" y1="226.9" x2="385.1" y2="71.9"/>
		<line class="st4" x1="385.1" y1="70.6" x2="385.1" y2="69.2"/>
	</g>
</g>
<g>
	<g>
		<line class="st4" x1="513.6" y1="230.8" x2="513.6" y2="229.5"/>
		<line class="st5" x1="513.6" y1="226.9" x2="513.6" y2="71.9"/>
		<line class="st4" x1="513.6" y1="70.6" x2="513.6" y2="69.2"/>
	</g>
</g>
<g>
	<g>
		<line class="st4" x1="641.7" y1="230.8" x2="641.7" y2="229.5"/>
		<line class="st5" x1="641.7" y1="226.9" x2="641.7" y2="71.9"/>
		<line class="st4" x1="641.7" y1="70.6" x2="641.7" y2="69.2"/>
	</g>
</g>
<g class="st6">
	<path class="st3" d="M110.1,53.4c0.3,0.3,0.7,0.5,1.2,0.5c0.7,0,1.1-0.4,1.1-1.2v-5.6h2.2v5.6c0,2.1-1.3,3.1-3.2,3.1
		c-0.9,0-1.7-0.2-2.3-0.8L110.1,53.4z"/>
	<path class="st3" d="M120.3,47c2.6,0,4.6,1.8,4.6,4.4c0,2.6-1.9,4.4-4.6,4.4s-4.6-1.8-4.6-4.4C115.8,48.8,117.7,47,120.3,47z
		 M120.3,49c-1.4,0-2.3,1.1-2.3,2.5c0,1.4,0.9,2.5,2.3,2.5c1.4,0,2.3-1.1,2.3-2.5C122.6,50,121.7,49,120.3,49z"/>
	<path class="st3" d="M126,47.2h2.2v5c0,1,0.6,1.7,1.8,1.7c1.2,0,1.8-0.7,1.8-1.7v-5h2.2v5.1c0,2.1-1.3,3.6-4,3.6
		c-2.8,0-4-1.5-4-3.6V47.2z"/>
	<path class="st3" d="M138.9,52.8h-1.1v2.9h-2.2v-8.5h4.3c1.9,0,3,1.3,3,2.8c0,1.5-0.9,2.3-1.7,2.6l1.7,3.1h-2.5L138.9,52.8z
		 M139.5,49.1h-1.7v1.8h1.7c0.6,0,1.1-0.3,1.1-0.9C140.6,49.4,140.1,49.1,139.5,49.1z"/>
	<path class="st3" d="M149.3,50l-1.4,1.4l-1.3-1.3l3-2.9h1.9v8.5h-2.2V50z"/>
</g>
<g class="st6">
	<path class="st3" d="M235,53.4c0.3,0.3,0.7,0.5,1.2,0.5c0.7,0,1.1-0.4,1.1-1.2v-5.6h2.2v5.6c0,2.1-1.3,3.1-3.2,3.1
		c-0.9,0-1.7-0.2-2.3-0.8L235,53.4z"/>
	<path class="st3" d="M245.2,47c2.6,0,4.6,1.8,4.6,4.4c0,2.6-1.9,4.4-4.6,4.4s-4.6-1.8-4.6-4.4C240.7,48.8,242.6,47,245.2,47z
		 M245.2,49c-1.4,0-2.3,1.1-2.3,2.5c0,1.4,0.9,2.5,2.3,2.5c1.4,0,2.3-1.1,2.3-2.5C247.6,50,246.6,49,245.2,49z"/>
	<path class="st3" d="M250.9,47.2h2.2v5c0,1,0.6,1.7,1.8,1.7c1.2,0,1.8-0.7,1.8-1.7v-5h2.2v5.1c0,2.1-1.3,3.6-4,3.6
		c-2.8,0-4-1.5-4-3.6V47.2z"/>
	<path class="st3" d="M263.8,52.8h-1.1v2.9h-2.2v-8.5h4.3c1.9,0,3,1.3,3,2.8c0,1.5-0.9,2.3-1.7,2.6l1.7,3.1h-2.5L263.8,52.8z
		 M264.4,49.1h-1.7v1.8h1.7c0.6,0,1.1-0.3,1.1-0.9C265.5,49.4,265,49.1,264.4,49.1z"/>
	<path class="st3" d="M272,54c3.7-2.7,4.4-3.3,4.4-4.1c0-0.6-0.6-0.9-1.2-0.9c-0.9,0-1.7,0.4-2.3,0.9l-1.2-1.5
		c0.9-1,2.3-1.4,3.5-1.4c2,0,3.5,1.1,3.5,2.8c0,1.3-0.9,2.4-3.1,3.9h3.1v1.9H272L272,54L272,54z"/>
</g>
<g class="st6">
	<path class="st3" d="M362.7,53.4c0.3,0.3,0.7,0.5,1.2,0.5c0.7,0,1.1-0.4,1.1-1.2v-5.6h2.2v5.6c0,2.1-1.3,3.1-3.2,3.1
		c-0.9,0-1.7-0.2-2.3-0.8L362.7,53.4z"/>
	<path class="st3" d="M372.9,47c2.6,0,4.6,1.8,4.6,4.4c0,2.6-1.9,4.4-4.6,4.4s-4.6-1.8-4.6-4.4C368.4,48.8,370.3,47,372.9,47z
		 M372.9,49c-1.4,0-2.3,1.1-2.3,2.5c0,1.4,0.9,2.5,2.3,2.5c1.4,0,2.3-1.1,2.3-2.5C375.3,50,374.4,49,372.9,49z"/>
	<path class="st3" d="M378.6,47.2h2.2v5c0,1,0.6,1.7,1.8,1.7c1.2,0,1.8-0.7,1.8-1.7v-5h2.2v5.1c0,2.1-1.3,3.6-4,3.6
		c-2.8,0-4-1.5-4-3.6L378.6,47.2L378.6,47.2z"/>
	<path class="st3" d="M391.5,52.8h-1.1v2.9h-2.2v-8.5h4.3c1.9,0,3,1.3,3,2.8c0,1.5-0.9,2.3-1.7,2.6l1.7,3.1H393L391.5,52.8z
		 M392.2,49.1h-1.7v1.8h1.7c0.6,0,1.1-0.3,1.1-0.9C393.2,49.4,392.7,49.1,392.2,49.1z"/>
	<path class="st3" d="M400.5,53c0.6,0.6,1.6,0.9,2.3,0.9c0.9,0,1.4-0.4,1.4-0.8c0-0.5-0.4-0.7-1.5-0.7c-0.4,0-1,0-1.2,0v-2
		c0.2,0,0.8,0,1.2,0c0.9,0,1.4-0.2,1.4-0.7c0-0.5-0.6-0.8-1.4-0.8c-0.8,0-1.5,0.3-2.1,0.8l-1.1-1.4c0.7-0.8,1.8-1.4,3.4-1.4
		c2.2,0,3.4,0.9,3.4,2.3c0,1-0.9,1.8-1.9,1.9c0.9,0.1,2,0.8,2,2c0,1.5-1.4,2.5-3.5,2.5c-1.6,0-2.9-0.6-3.5-1.3L400.5,53z"/>
</g>
<g class="st6">
	<path class="st3" d="M489.4,53.4c0.3,0.3,0.7,0.5,1.2,0.5c0.7,0,1.1-0.4,1.1-1.2v-5.6h2.2v5.6c0,2.1-1.3,3.1-3.2,3.1
		c-0.9,0-1.7-0.2-2.3-0.8L489.4,53.4z"/>
	<path class="st3" d="M499.6,47c2.6,0,4.6,1.8,4.6,4.4c0,2.6-1.9,4.4-4.6,4.4c-2.6,0-4.6-1.8-4.6-4.4C495.1,48.8,497,47,499.6,47z
		 M499.6,49c-1.4,0-2.3,1.1-2.3,2.5c0,1.4,0.9,2.5,2.3,2.5c1.4,0,2.3-1.1,2.3-2.5C502,50,501,49,499.6,49z"/>
	<path class="st3" d="M505.3,47.2h2.2v5c0,1,0.6,1.7,1.8,1.7c1.2,0,1.8-0.7,1.8-1.7v-5h2.2v5.1c0,2.1-1.3,3.6-4,3.6
		c-2.8,0-4-1.5-4-3.6L505.3,47.2L505.3,47.2z"/>
	<path class="st3" d="M518.2,52.8h-1.1v2.9h-2.2v-8.5h4.3c1.9,0,3,1.3,3,2.8c0,1.5-0.9,2.3-1.7,2.6l1.7,3.1h-2.5L518.2,52.8z
		 M518.8,49.1h-1.7v1.8h1.7c0.6,0,1.1-0.3,1.1-0.9C519.9,49.4,519.4,49.1,518.8,49.1z"/>
	<path class="st3" d="M530.2,54.1h-4.1v-1.7l3.2-5.3h3.1v5h1v1.9h-1v1.6h-2.2V54.1z M528.3,52.2h1.9v-3.1L528.3,52.2z"/>
</g>
<g class="st6">
	<path class="st3" d="M615.8,53.4c0.3,0.3,0.7,0.5,1.2,0.5c0.7,0,1.1-0.4,1.1-1.2v-5.6h2.2v5.6c0,2.1-1.3,3.1-3.2,3.1
		c-0.9,0-1.7-0.2-2.3-0.8L615.8,53.4z"/>
	<path class="st3" d="M626,47c2.6,0,4.6,1.8,4.6,4.4c0,2.6-1.9,4.4-4.6,4.4s-4.6-1.8-4.6-4.4C621.5,48.8,623.4,47,626,47z M626,49
		c-1.4,0-2.3,1.1-2.3,2.5c0,1.4,0.9,2.5,2.3,2.5c1.4,0,2.3-1.1,2.3-2.5C628.4,50,627.4,49,626,49z"/>
	<path class="st3" d="M631.7,47.2h2.2v5c0,1,0.6,1.7,1.8,1.7c1.2,0,1.8-0.7,1.8-1.7v-5h2.2v5.1c0,2.1-1.3,3.6-4,3.6
		c-2.8,0-4-1.5-4-3.6L631.7,47.2L631.7,47.2z"/>
	<path class="st3" d="M644.6,52.8h-1.1v2.9h-2.2v-8.5h4.3c1.9,0,3,1.3,3,2.8c0,1.5-0.9,2.3-1.7,2.6l1.7,3.1h-2.5L644.6,52.8z
		 M645.2,49.1h-1.7v1.8h1.7c0.6,0,1.1-0.3,1.1-0.9C646.3,49.4,645.8,49.1,645.2,49.1z"/>
	<path class="st3" d="M654,53.1c0.6,0.5,1.4,0.8,2.2,0.8c0.9,0,1.4-0.5,1.4-1c0-0.6-0.4-1-1.3-1c-0.7,0-1.2,0.2-1.7,0.6l-1.5-0.4v-5
		h6.2v1.9h-4v1.7c0.4-0.4,1.1-0.7,1.8-0.7c1.5,0,2.8,1.1,2.8,2.8c0,1.8-1.4,3-3.6,3c-1.5,0-2.7-0.5-3.4-1.2L654,53.1z"/>
</g>
<g>
	<g>
		<path class="st3" d="M86,246.5c0-2.6,2-4.4,4.6-4.4c2.1,0,3.2,1.2,3.7,2.3l-1.9,0.9c-0.3-0.7-1-1.2-1.8-1.2
			c-1.4,0-2.4,1.1-2.4,2.5c0,1.4,1,2.5,2.4,2.5c0.8,0,1.5-0.6,1.8-1.2l1.9,0.9c-0.6,1.1-1.7,2.3-3.7,2.3C88,251,86,249.2,86,246.5z"
			/>
		<path class="st3" d="M99.4,242.1c2.6,0,4.6,1.8,4.6,4.4c0,2.6-1.9,4.4-4.6,4.4c-2.6,0-4.6-1.8-4.6-4.4
			C94.8,243.9,96.8,242.1,99.4,242.1z M99.4,244.1c-1.4,0-2.3,1.1-2.3,2.5c0,1.4,0.9,2.5,2.3,2.5c1.4,0,2.3-1.1,2.3-2.5
			C101.7,245.2,100.8,244.1,99.4,244.1z"/>
		<path class="st3" d="M112.6,245.3l-2.2,5.6h-1l-2.2-5.6v5.6h-2.2v-8.5h3.1l1.8,4.6l1.8-4.6h3.1v8.5h-2.2V245.3z"/>
		<path class="st3" d="M116.3,242.3h4.3c1.9,0,3,1.3,3,2.8c0,1.5-1.1,2.8-3,2.8h-2.1v2.9h-2.2V242.3z M120.3,244.2h-1.8v1.8h1.8
			c0.6,0,1-0.3,1-0.9C121.3,244.5,120.9,244.2,120.3,244.2z"/>
		<path class="st3" d="M127.9,247.9h-1.1v2.9h-2.2v-8.5h4.3c1.9,0,3,1.3,3,2.8c0,1.5-0.9,2.3-1.7,2.6l1.7,3.1h-2.5L127.9,247.9z
			 M128.5,244.2h-1.7v1.8h1.7c0.6,0,1.1-0.3,1.1-0.9C129.5,244.5,129.1,244.2,128.5,244.2z"/>
		<path class="st3" d="M133,242.3h6.3v1.9h-4.1v1.3h4v1.9h-4v1.4h4.1v1.9H133V242.3z"/>
		<path class="st3" d="M142.7,245.9v4.9h-2.2v-8.5h2.3l3.5,4.7v-4.7h2.2v8.5h-2.1L142.7,245.9z"/>
		<path class="st3" d="M150,242.3h3.6c2.7,0,4.6,1.6,4.6,4.3c0,2.7-1.9,4.3-4.6,4.3H150V242.3z M153.6,248.9c1.5,0,2.4-1.1,2.4-2.4
			c0-1.3-0.8-2.3-2.4-2.3h-1.4v4.7H153.6z"/>
		<path class="st3" d="M162.6,247.9h-1.1v2.9h-2.2v-8.5h4.3c1.9,0,3,1.3,3,2.8c0,1.5-0.9,2.3-1.7,2.6l1.7,3.1h-2.5L162.6,247.9z
			 M163.3,244.2h-1.7v1.8h1.7c0.6,0,1.1-0.3,1.1-0.9C164.3,244.5,163.8,244.2,163.3,244.2z"/>
		<path class="st3" d="M167.8,242.3h6.3v1.9H170v1.3h4v1.9h-4v1.4h4.1v1.9h-6.3V242.3z"/>
	</g>
</g>
<g>
	<g>
		<path class="st3" d="M220.8,242.3h6.3v1.9H223v1.3h4v1.9h-4v1.4h4.1v1.9h-6.3V242.3z"/>
		<path class="st3" d="M228.9,248c0.6,0.6,1.6,1.1,2.7,1.1c0.8,0,1.2-0.3,1.2-0.7c0-0.4-0.6-0.6-1.5-0.8c-1.4-0.3-3.4-0.7-3.4-2.8
			c0-1.4,1.2-2.7,3.4-2.7c1.4,0,2.6,0.4,3.5,1.2l-1.2,1.6c-0.7-0.6-1.7-0.9-2.5-0.9c-0.6,0-0.9,0.3-0.9,0.6c0,0.4,0.7,0.6,1.5,0.7
			c1.4,0.3,3.4,0.7,3.4,2.7c0,1.7-1.3,2.9-3.6,2.9c-1.7,0-2.9-0.5-3.8-1.4L228.9,248z"/>
		<path class="st3" d="M243.7,249.5l0.5,0.7l-1.5,1.2l-0.6-0.8c-0.6,0.2-1.2,0.3-1.9,0.3c-2.6,0-4.6-1.8-4.6-4.4
			c0-2.6,2-4.4,4.6-4.4c2.6,0,4.6,1.8,4.6,4.4C244.8,247.7,244.4,248.7,243.7,249.5z M240.7,249l-0.8-0.9l1.5-1.2l0.8,1
			c0.2-0.4,0.3-0.8,0.3-1.2c0-1.4-0.9-2.5-2.3-2.5c-1.4,0-2.3,1.1-2.3,2.5c0,1.4,0.9,2.5,2.3,2.5C240.4,249,240.5,249,240.7,249z"/>
		<path class="st3" d="M245.9,242.3h2.2v5c0,1,0.6,1.7,1.8,1.7c1.2,0,1.8-0.7,1.8-1.7v-5h2.2v5.1c0,2.1-1.3,3.6-4,3.6
			c-2.8,0-4-1.5-4-3.6V242.3z"/>
		<path class="st3" d="M255.5,242.3h2.2v8.5h-2.2V242.3z"/>
		<path class="st3" d="M259.8,248c0.6,0.6,1.6,1.1,2.7,1.1c0.8,0,1.2-0.3,1.2-0.7c0-0.4-0.6-0.6-1.5-0.8c-1.4-0.3-3.4-0.7-3.4-2.8
			c0-1.4,1.2-2.7,3.4-2.7c1.4,0,2.6,0.4,3.5,1.2l-1.2,1.6c-0.7-0.6-1.7-0.9-2.5-0.9c-0.6,0-0.9,0.3-0.9,0.6c0,0.4,0.7,0.6,1.5,0.7
			c1.4,0.3,3.4,0.7,3.4,2.7c0,1.7-1.3,2.9-3.6,2.9c-1.7,0-2.9-0.5-3.8-1.4L259.8,248z"/>
		<path class="st3" d="M267.5,248c0.6,0.6,1.6,1.1,2.7,1.1c0.8,0,1.2-0.3,1.2-0.7c0-0.4-0.6-0.6-1.5-0.8c-1.4-0.3-3.4-0.7-3.4-2.8
			c0-1.4,1.2-2.7,3.4-2.7c1.4,0,2.6,0.4,3.5,1.2l-1.2,1.6c-0.7-0.6-1.7-0.9-2.5-0.9c-0.6,0-0.9,0.3-0.9,0.6c0,0.4,0.7,0.6,1.5,0.7
			c1.4,0.3,3.4,0.7,3.4,2.7c0,1.7-1.3,2.9-3.6,2.9c-1.7,0-2.9-0.5-3.8-1.4L267.5,248z"/>
		<path class="st3" d="M274.7,242.3h6.3v1.9h-4.1v1.3h4v1.9h-4v1.4h4.1v1.9h-6.3V242.3z"/>
		<path class="st3" d="M285.6,247.9h-1.1v2.9h-2.2v-8.5h4.3c1.9,0,3,1.3,3,2.8c0,1.5-0.9,2.3-1.7,2.6l1.7,3.1H287L285.6,247.9z
			 M286.2,244.2h-1.7v1.8h1.7c0.6,0,1.1-0.3,1.1-0.9C287.3,244.5,286.8,244.2,286.2,244.2z"/>
	</g>
</g>
<g>
	<g>
		<path class="st3" d="M356.6,242.3h3.6c2.7,0,4.6,1.6,4.6,4.3c0,2.7-1.9,4.3-4.6,4.3h-3.6V242.3z M360.2,248.9
			c1.5,0,2.4-1.1,2.4-2.4c0-1.3-0.8-2.3-2.4-2.3h-1.4v4.7H360.2z"/>
		<path class="st3" d="M365.9,242.3h6.3v1.9h-4.1v1.3h4v1.9h-4v1.4h4.1v1.9h-6.3V242.3z M368.2,241.6l1.6-1.8h1.7l-2,1.8H368.2z"/>
		<path class="st3" d="M373,246.5c0-2.6,2-4.4,4.6-4.4c2.1,0,3.2,1.2,3.7,2.3l-1.9,0.9c-0.3-0.7-1-1.2-1.8-1.2
			c-1.4,0-2.4,1.1-2.4,2.5c0,1.4,1,2.5,2.4,2.5c0.8,0,1.5-0.6,1.8-1.2l1.9,0.9c-0.6,1.1-1.7,2.3-3.7,2.3
			C375,251,373,249.2,373,246.5z"/>
		<path class="st3" d="M382.3,242.3h2.2v8.5h-2.2V242.3z"/>
		<path class="st3" d="M386.1,242.3h3.6c2.7,0,4.6,1.6,4.6,4.3c0,2.7-1.9,4.3-4.6,4.3h-3.6V242.3z M389.7,248.9
			c1.5,0,2.4-1.1,2.4-2.4c0-1.3-0.8-2.3-2.4-2.3h-1.4v4.7H389.7z"/>
		<path class="st3" d="M395.4,242.3h6.3v1.9h-4.1v1.3h4v1.9h-4v1.4h4.1v1.9h-6.3V242.3z"/>
		<path class="st3" d="M406.2,247.9h-1.1v2.9h-2.2v-8.5h4.3c1.9,0,3,1.3,3,2.8c0,1.5-0.9,2.3-1.7,2.6l1.7,3.1h-2.5L406.2,247.9z
			 M406.9,244.2h-1.7v1.8h1.7c0.6,0,1.1-0.3,1.1-0.9C407.9,244.5,407.4,244.2,406.9,244.2z"/>
	</g>
</g>
<g>
	<g>
		<path class="st3" d="M471,242.3h4.3c1.9,0,3,1.3,3,2.8c0,1.5-1,2.8-3,2.8h-2.1v2.9H471V242.3z M474.9,244.2h-1.8v1.8h1.8
			c0.6,0,1-0.3,1-0.9C476,244.5,475.5,244.2,474.9,244.2z"/>
		<path class="st3" d="M482.5,247.9h-1.1v2.9h-2.2v-8.5h4.3c1.9,0,3,1.3,3,2.8c0,1.5-0.9,2.3-1.7,2.6l1.7,3.1H484L482.5,247.9z
			 M483.1,244.2h-1.7v1.8h1.7c0.6,0,1.1-0.3,1.1-0.9C484.2,244.5,483.7,244.2,483.1,244.2z"/>
		<path class="st3" d="M491.8,242.1c2.6,0,4.6,1.8,4.6,4.4c0,2.6-1.9,4.4-4.6,4.4c-2.6,0-4.6-1.8-4.6-4.4
			C487.2,243.9,489.2,242.1,491.8,242.1z M491.8,244.1c-1.4,0-2.3,1.1-2.3,2.5c0,1.4,0.9,2.5,2.3,2.5c1.4,0,2.3-1.1,2.3-2.5
			C494.1,245.2,493.2,244.1,491.8,244.1z"/>
		<path class="st3" d="M499.1,244.2h-2.4v-1.9h7v1.9h-2.4v6.6h-2.2V244.2z"/>
		<path class="st3" d="M508.6,242.1c2.6,0,4.6,1.8,4.6,4.4c0,2.6-1.9,4.4-4.6,4.4s-4.6-1.8-4.6-4.4C504,243.9,506,242.1,508.6,242.1
			z M508.6,244.1c-1.4,0-2.3,1.1-2.3,2.5c0,1.4,0.9,2.5,2.3,2.5c1.4,0,2.3-1.1,2.3-2.5C510.9,245.2,510,244.1,508.6,244.1z"/>
		<path class="st3" d="M515.9,244.2h-2.4v-1.9h7v1.9h-2.4v6.6h-2.2V244.2z"/>
		<path class="st3" d="M523.8,247.4l-3.2-5.1h2.5l1.9,3.1l1.8-3.1h2.5l-3.2,5.1v3.4h-2.2V247.4z"/>
		<path class="st3" d="M529.9,242.3h4.3c1.9,0,3,1.3,3,2.8c0,1.5-1,2.8-3,2.8h-2.1v2.9h-2.2V242.3z M533.9,244.2h-1.8v1.8h1.8
			c0.6,0,1-0.3,1-0.9C534.9,244.5,534.5,244.2,533.9,244.2z"/>
		<path class="st3" d="M538.1,242.3h6.3v1.9h-4.1v1.3h4v1.9h-4v1.4h4.1v1.9h-6.3V242.3z"/>
		<path class="st3" d="M549,247.9h-1.1v2.9h-2.2v-8.5h4.3c1.9,0,3,1.3,3,2.8c0,1.5-0.9,2.3-1.7,2.6l1.7,3.1h-2.5L549,247.9z
			 M549.6,244.2h-1.7v1.8h1.7c0.6,0,1.1-0.3,1.1-0.9C550.7,244.5,550.2,244.2,549.6,244.2z"/>
	</g>
</g>
<g>
	<g>
		<path class="st3" d="M619.3,244.2h-2.4v-1.9h7v1.9h-2.4v6.6h-2.2V244.2z"/>
		<path class="st3" d="M624.9,242.3h6.3v1.9h-4.1v1.3h4v1.9h-4v1.4h4.1v1.9h-6.3V242.3z"/>
		<path class="st3" d="M633,248c0.6,0.6,1.6,1.1,2.7,1.1c0.8,0,1.2-0.3,1.2-0.7c0-0.4-0.6-0.6-1.5-0.8c-1.4-0.3-3.4-0.7-3.4-2.8
			c0-1.4,1.2-2.7,3.4-2.7c1.4,0,2.6,0.4,3.5,1.2l-1.2,1.6c-0.7-0.6-1.7-0.9-2.5-0.9c-0.6,0-0.9,0.3-0.9,0.6c0,0.4,0.7,0.6,1.5,0.7
			c1.4,0.3,3.4,0.7,3.4,2.7c0,1.7-1.3,2.9-3.6,2.9c-1.7,0-2.9-0.5-3.8-1.4L633,248z"/>
		<path class="st3" d="M642.1,244.2h-2.4v-1.9h7v1.9h-2.4v6.6h-2.2V244.2z"/>
		<path class="st3" d="M647.7,242.3h6.3v1.9h-4.1v1.3h4v1.9h-4v1.4h4.1v1.9h-6.3V242.3z"/>
		<path class="st3" d="M658.6,247.9h-1.1v2.9h-2.2v-8.5h4.3c1.9,0,3,1.3,3,2.8c0,1.5-0.9,2.3-1.7,2.6l1.7,3.1H660L658.6,247.9z
			 M659.2,244.2h-1.7v1.8h1.7c0.6,0,1.1-0.3,1.1-0.9C660.2,244.5,659.7,244.2,659.2,244.2z"/>
	</g>
</g>
</svg>
